<?xml version="1.0" encoding="UTF-8"?>
<svg width="16px" height="16px" viewBox="0 0 16 16" version="1.1" xmlns="http://www.w3.org/2000/svg" xmlns:xlink="http://www.w3.org/1999/xlink">
    <!-- Generator: Sketch 43.2 (39069) - http://www.bohemiancoding.com/sketch -->
    <title>Slice</title>
    <desc>Created with Sketch.</desc>
    <defs></defs>
    <g id="Page-1" stroke="none" stroke-width="1" fill="none" fill-rule="evenodd">
        <g id="Group" transform="translate(0.000000, 3.000000)" fill="#000000">
            <path d="M14.9580318,8.92777266 C14.9580318,9.13125568 15.0182338,9.27114815 15.1386397,9.34745428 C15.2590455,9.42376041 15.4998535,9.5026089 15.8610709,9.5840021 C15.9536908,9.60435041 16,9.67556839 16,9.7976582 C16,9.87905141 15.9907382,9.97061739 15.9722142,10.0723589 C15.7406645,10.0520106 15.4674401,10.0342061 15.1525326,10.0189449 C14.8376251,10.0036836 14.5551387,9.99605315 14.3050651,9.99605315 C14.0457295,9.99605315 13.7701896,10.0036836 13.478437,10.0189449 C13.1866845,10.0342061 12.9018827,10.0520106 12.6240232,10.0723589 C12.6054992,9.97061739 12.5962373,9.87905141 12.5962373,9.7976582 C12.5962373,9.67556839 12.6425466,9.60435041 12.7351664,9.5840021 C13.0778599,9.51278305 13.314037,9.43647806 13.4437048,9.35508486 C13.5733726,9.27369165 13.6382055,9.13125568 13.6382055,8.92777266 L13.6382055,5.2345744 L9.27583213,5.2345744 L9.27583213,8.92777266 C9.27583213,9.13125568 9.33603413,9.27114815 9.45643994,9.34745428 C9.57684575,9.42376041 9.81765377,9.5026089 10.1788712,9.5840021 C10.280753,9.60435041 10.3316932,9.67556839 10.3316932,9.7976582 C10.3316932,9.87905141 10.3224314,9.97061739 10.3039074,10.0723589 C10.0630958,10.0520106 9.78524036,10.0342061 9.47033285,10.0189449 C9.15542534,10.0036836 8.87293902,9.99605315 8.62286541,9.99605315 C8.36352982,9.99605315 8.09030534,10.0036836 7.80318379,10.0189449 C7.51606224,10.0342061 7.228945,10.0520106 6.94182344,10.0723589 C6.92329947,9.97061739 6.91403763,9.87905141 6.91403763,9.7976582 C6.91403763,9.67556839 6.96034686,9.60435041 7.05296671,9.5840021 C7.40492216,9.51278305 7.64573018,9.43647806 7.77539797,9.35508486 C7.90506577,9.27369165 7.9698987,9.13125568 7.9698987,8.92777266 L7.9698987,1.17510854 C7.9698987,1.07336703 7.95832139,0.989431546 7.93516643,0.923299566 C7.91201146,0.857167586 7.86801769,0.798667096 7.80318379,0.747796343 C7.73834989,0.696925589 7.64804689,0.653686097 7.53227207,0.618076569 C7.41649725,0.582467041 7.26599224,0.544314548 7.08075253,0.503617945 C6.98813268,0.493443794 6.94182344,0.412051809 6.94182344,0.259439547 C6.94182344,0.188220492 6.95108529,0.101741508 6.96960926,0 C7.2011589,0.0203483015 7.46975245,0.0381527983 7.77539797,0.0534140245 C8.0810435,0.0686752506 8.35889889,0.0763057492 8.6089725,0.0763057492 C8.8683081,0.0763057492 9.14153257,0.0686752506 9.42865412,0.0534140245 C9.71577568,0.0381527983 9.998262,0.0203483015 10.2761216,0 C10.2946455,0.101741508 10.3039074,0.188220492 10.3039074,0.259439547 C10.3039074,0.401877658 10.2575981,0.483269643 10.1649783,0.503617945 C9.80376086,0.56466285 9.56526831,0.640967836 9.44949349,0.732535193 C9.33371867,0.82410255 9.27583213,0.971625523 9.27583213,1.17510854 L9.27583213,4.5936061 L13.6382055,4.5936061 L13.6382055,1.17510854 C13.6382055,1.00214798 13.5826344,0.862255501 13.4714906,0.755426918 C13.3603468,0.648598334 13.1241697,0.56466285 12.7629522,0.503617945 C12.6610704,0.493443794 12.6101302,0.412051809 12.6101302,0.259439547 C12.6101302,0.188220492 12.6193921,0.101741508 12.6379161,0 C12.8694657,0.0203483015 13.1403747,0.0381527983 13.4506512,0.0534140245 C13.7609277,0.0686752506 14.0410986,0.0763057492 14.2911722,0.0763057492 C14.5505078,0.0763057492 14.8214168,0.0686752506 15.1039074,0.0534140245 C15.3863979,0.0381527983 15.6711997,0.0203483015 15.9583213,0 C15.9768452,0.101741508 15.9861071,0.188220492 15.9861071,0.259439547 C15.9861071,0.401877658 15.9397979,0.483269643 15.847178,0.503617945 C15.4859606,0.56466285 15.247468,0.640967836 15.1316932,0.732535193 C15.0159184,0.82410255 14.9580318,0.971625523 14.9580318,1.17510854 L14.9580318,8.92777266 Z" id="H"></path>
            <path d="M7.80781476,5.39560584 C7.80781476,3.82878662 7.45354913,2.66640733 6.74500724,1.9084331 C6.03646534,1.15045887 5.00145399,0.771477437 3.63994211,0.771477437 L2.43125904,0.771477437 L2.43125904,8.89040916 C2.43125904,8.99215066 2.45441366,9.07862965 2.50072359,9.1498487 C2.54703352,9.22106776 2.62575921,9.27702475 2.73690304,9.31772135 C2.84804687,9.35841796 3.00086733,9.38893995 3.19536903,9.40928825 C3.38987073,9.42963655 3.63530966,9.43981055 3.9316932,9.43981055 C4.64486608,9.43981055 5.24688611,9.34570107 5.73777135,9.15747928 C6.22865658,8.96925749 6.62691598,8.69964654 6.93256151,8.34863834 C7.23820703,7.99763014 7.46049135,7.57286571 7.59942113,7.07433232 C7.73835091,6.57579894 7.80781476,6.01622904 7.80781476,5.39560584 Z M9.26657019,5.10564399 C9.26657019,5.70591889 9.17163626,6.30109778 8.98176556,6.89119853 C8.79189485,7.48129927 8.50477761,8.01289067 8.12040521,8.48598869 C7.73603281,8.9590867 7.24978586,9.34061163 6.66164978,9.63057492 C6.0735137,9.92053822 5.38582159,10.0655177 4.59855282,10.0655177 L1.75050651,10.0655177 C1.50969489,10.0655177 1.23647041,10.0731482 0.930824891,10.0884094 C0.625179369,10.1036706 0.328800278,10.1214751 0.0416787265,10.1418234 C0.0231547554,10.0400819 0.0138929088,9.95868995 0.0138929088,9.89764505 C0.0138929088,9.75520694 0.0648330651,9.67381495 0.166714906,9.65346665 C0.50940837,9.56189929 0.754847305,9.47542031 0.903039074,9.3940271 C1.05123084,9.3126339 1.12532562,9.18037192 1.12532562,8.99723721 L1.12532562,1.22931193 C1.12532562,1.02582892 1.05586177,0.883392943 0.916931983,0.801999737 C0.7780022,0.720606531 0.527932342,0.644301545 0.166714906,0.573082489 C0.111142993,0.562908338 0.0717801447,0.532386344 0.0486251809,0.48151559 C0.0254702171,0.430644836 0.0138929088,0.374687846 0.0138929088,0.313642942 C0.0138929088,0.252598037 0.0231547554,0.171206052 0.0416787265,0.0694645441 C0.236180423,0.0898128457 0.405209123,0.102530343 0.548769899,0.107617419 C0.692330674,0.112704494 0.828942912,0.120334993 0.958610709,0.130509144 C1.08827851,0.140683294 1.2156289,0.145770293 1.3406657,0.145770293 L4.58465991,0.145770293 C5.3626667,0.145770293 6.04572788,0.278032269 6.63386397,0.542560189 C7.22200005,0.807088109 7.71056245,1.16317804 8.09956585,1.61084068 C8.48856924,2.05850331 8.78031741,2.58246422 8.9748191,3.18273911 C9.1693208,3.78301401 9.26657019,4.42397589 9.26657019,5.10564399 Z" id="D"></path>
        </g>
    </g>
</svg>